<svg width="393" height="413" viewBox="0 0 393 413" fill="none" xmlns="http://www.w3.org/2000/svg">
<path opacity="0.4" d="M367.975 114.234C365.402 116.995 363.248 120.455 362.35 124.172C362.347 124.177 362.346 124.181 362.342 124.185C362.068 121.953 361.898 119.711 361.851 117.464C362.568 116.491 362.768 115.269 363.041 113.992C363.559 111.562 364.716 109.357 365.221 106.921C365.714 104.535 363.901 100.916 361.003 102.082C354.702 104.615 356.727 115.068 360.622 118.962C360.657 120.407 360.74 121.841 360.866 123.266C359.495 121.808 357.908 120.395 356.469 119.126C355.244 118.049 353.036 116.86 351.789 118.484C350.195 120.561 352.156 122.914 353.774 124.107C355.865 125.646 358.767 126.67 361.328 127.224C361.87 130.994 362.695 134.715 363.748 138.424C362.069 136.504 360.213 134.633 358.555 132.933C356.866 131.2 354.615 128.681 351.967 128.899C348.886 129.152 350.816 134.587 351.729 135.781C355.195 140.312 360.327 142.307 365.536 144.11C365.828 144.961 366.126 145.814 366.438 146.667C367.018 148.255 367.611 150.017 368.252 151.854C367.449 151.277 366.603 150.731 365.902 150.045C364.441 148.62 362.919 147.277 361.244 146.104C358.963 144.508 355.464 143.474 354.359 146.852C353.347 149.947 358.356 152.174 360.397 153.093C362.849 154.199 366.582 155.771 369.453 155.195C371.312 160.157 373.645 165.254 377.094 168.769C366.125 163.427 355.078 158.363 344.779 151.574C341.576 149.463 338.483 147.214 335.501 144.839C335.587 144.733 335.617 144.588 335.523 144.438C332.215 139.045 329.642 133.477 327.585 127.775C327.727 126.823 328.131 125.922 328.71 125.195C330.39 123.027 343.315 114.724 338.612 111.453C334.881 108.87 329.22 117.54 328.196 119.891C327.45 121.66 326.933 123.712 326.858 125.741C325.593 121.985 324.547 118.172 323.671 114.31C323.991 113.202 324.502 112.14 325.13 111.211C326.439 109.297 336.38 97.7378 331.257 96.538C327.48 95.6065 324.496 105.475 323.905 107.707C323.645 108.799 323.305 110.19 323.104 111.628C322.273 107.583 321.609 103.49 321.065 99.3525C321.349 98.8772 321.643 98.4138 321.894 97.9635C323.329 95.0944 329.941 87.9385 328.666 85.0274C327.236 81.7808 323.254 88.2818 322.624 89.5541C321.653 91.4456 320.957 93.5021 320.606 95.6255C320.385 93.7001 320.182 91.7671 319.996 89.827C320.264 88.7603 320.772 87.7007 321.079 86.686C321.924 83.6028 322.746 64.7155 317.185 70.974C312.359 76.3528 316.561 83.6066 318.746 89.3038C318.776 90.8069 318.819 92.3279 318.881 93.8642C317.624 91.0192 313.271 82.6495 312.014 88.3005C311.212 91.8533 316.192 96.5486 319.177 99.2115C319.447 103.051 319.856 106.935 320.458 110.786C320.324 110.625 320.201 110.473 320.065 110.309C318.498 108.348 312.754 96.1888 309.529 99.2399C306.709 101.939 312.571 107.523 314.316 108.992C316.275 110.683 318.5 112.132 320.864 113.22C321.552 117.05 322.452 120.825 323.608 124.47C321.603 121.574 320.745 118.145 317.997 115.674C316.32 114.173 311.118 111.052 311.427 115.392C311.7 119.829 317.88 124.695 321.19 126.903C322.506 127.753 323.844 128.406 325.207 128.993C327.208 134.068 329.806 138.794 333.167 142.938C324.521 135.716 316.875 127.384 310.413 118.065C302.221 106.252 295.127 92.0713 290.922 77.2079C291.307 74.3911 291.96 71.6931 292.799 69.076C293.678 68.8485 294.553 68.5193 295.413 68.2358C297.949 67.3801 309.795 63.4121 308.709 59.6785C307.802 56.7472 297.86 61.9508 293.757 66.3041C295.144 62.5806 296.832 58.9843 298.56 55.3919C299.408 55.2419 300.262 55.2204 301.1 55.0714C303.096 54.6306 311.745 51.4987 310.734 48.6284C309.308 44.9681 302.168 50.2948 299.536 53.3632C300.716 50.9059 301.881 48.4351 302.95 45.9128C303.912 44.8747 304.826 43.7727 305.934 42.8747C308.266 41.055 310.253 39.7215 311.068 36.5708C312.084 32.1027 308.968 31.19 305.913 34.0803C303.501 36.4261 302.732 39.1495 302.675 42.3543C302.656 43.0329 302.662 43.7118 302.614 44.3806C301.336 46.8908 299.98 49.367 298.628 51.8456C298.791 51.0605 298.952 50.2784 299.072 49.493C299.377 48.047 300.156 44.9938 299.134 43.676C297.854 42.153 296.63 43.3752 295.83 44.8079C294.023 48.1834 295.963 51.5139 297.033 54.8015C296.205 56.352 295.392 57.9091 294.621 59.4836C294.188 60.3681 293.725 61.3207 293.262 62.3154C293.298 61.7272 293.354 61.1328 293.443 60.5098C293.725 58.6664 293.492 48.0148 289.726 52.7036C286.961 55.9912 289.083 63.1103 291.36 66.8197C290.634 68.7828 290.051 70.808 289.773 72.7965C287.367 62.8318 286.323 52.6427 287.158 42.7156C287.266 42.7029 287.371 42.6664 287.466 42.5756C289.524 40.5855 302.193 34.6745 298.945 30.8756C296.069 27.5146 290.228 34.6414 287.542 39.1427C287.859 36.7401 288.278 34.355 288.834 31.998C291.406 30.1205 294.542 28.405 296.695 26.0574C297.77 24.8834 298.515 22.4197 296.343 21.9111C294.84 21.5598 293.379 23.0632 292.314 24.4308C291.897 24.9074 291.511 25.4371 291.163 26.0006C290.782 26.5291 290.392 27.099 290.016 27.6965C290.404 26.4291 290.829 25.1721 291.295 23.9248C291.691 23.415 292.003 22.8452 292.399 22.3251C292.927 21.6311 293.565 21.0185 294.136 20.3601C294.776 19.624 295.318 18.7921 295.843 17.9728C296.588 16.8097 298.259 14.3592 297.215 12.9755C296.003 11.3698 292.879 14.1401 292.175 15.0462C290.538 17.1487 290.576 20.1902 290.628 22.8178C290.532 23.0701 290.476 23.3325 290.456 23.6008C289.954 24.8682 289.492 26.1416 289.069 27.4237C288.893 24.0948 288.099 19.4696 285.697 19.9443C283.619 20.355 282.942 23.1248 283.234 24.9009C283.651 27.451 285.94 29.551 287.98 31.05C287.503 32.8209 287.106 34.6044 286.77 36.3958C285.531 32.5125 283.019 27.7005 279.976 29.0925C274.605 31.5499 282.788 39.7892 286.007 41.3764C285.428 46.3169 285.335 51.3089 285.668 56.3025C284.944 54.8512 284.067 53.4619 283.054 52.1453C283.053 52.1305 283.063 52.1223 283.06 52.1084C282.36 48.8262 284.97 46.1024 284.539 42.8832C284.287 40.9949 282.847 39.1041 280.857 40.2662C278.235 41.7964 278.834 45.7953 280.187 48.918C278.977 47.7113 277.675 46.5737 276.311 45.5132C276.316 43.2715 276.813 41.0899 276.735 38.8325C276.673 37.005 275.726 35.2818 273.678 35.8209C270.315 36.7078 270.615 39.808 271.953 42.4677C271.149 41.9631 270.34 41.4861 269.532 41.0293C269.489 40.9677 269.447 40.9047 269.379 40.8501C268.216 39.9159 267.83 38.4377 266.774 37.4246C266.129 36.805 265.301 36.3968 264.478 36.0653C263.169 35.5364 261.218 35.1105 260.171 36.327C258.948 37.7497 261.019 39.985 262.101 40.6991C264.088 42.0096 266.442 42.2655 268.753 42.2836C269.648 42.9236 270.563 43.5422 271.484 44.152C270.842 44.0264 270.224 43.9251 269.701 43.8212C267.937 43.4702 265.016 43.5905 264.994 46.0608C264.976 48.1456 267.904 48.6304 269.424 48.6175C271.483 48.6008 274.158 48.2572 276.052 47.292C276.144 47.3585 276.237 47.4232 276.326 47.491C277.238 48.1816 278.09 48.9085 278.906 49.6627C277.734 49.3724 276.503 49.2958 275.322 49.4191C273.821 49.5734 271.527 49.9898 270.951 51.6283C270.31 53.4506 272.936 54.8504 274.304 55.1036C276.892 55.5838 279.734 54.0186 281.968 52.9093C283.397 54.6365 284.671 56.4985 285.818 58.5208C285.826 58.5376 285.842 58.5358 285.853 58.5495C287.097 72.1765 291.38 85.7603 297.266 98.3064C294.653 95.5012 291.606 92.8773 288.538 90.4264C288.211 89.3002 287.924 88.1402 287.818 86.9343C287.565 84.1177 289.533 72.7662 283.813 73.963C277.588 75.2622 282.619 83.7724 286.555 88.8615C284.585 87.3291 282.646 85.8669 280.852 84.4763C279.372 83.3293 277.933 82.1373 276.511 80.9298C276.355 80.0812 276.385 79.1761 276.485 78.3548C276.616 76.0114 277.502 73.8868 277.138 71.5301C276.862 69.5392 275.286 64.4038 272.424 65.0849C269.361 65.8593 269.937 71.2977 270.641 73.334C271.169 74.8563 271.957 76.3823 272.892 77.8135C269.788 75.1236 266.682 72.4622 263.347 70.097C262.987 69.3712 262.662 68.6289 262.26 67.9435C260.593 64.889 249.575 53.3101 249.069 62.0236C248.696 68.9862 256.553 69.3774 261.831 70.7698C263.871 72.356 265.844 74.0227 267.79 75.7244C267.28 75.6186 266.77 75.5176 266.286 75.3615C264.451 74.7478 254.208 72.1827 255.204 76.7724C255.947 80.5269 266.647 78.3936 269.897 77.5778C272.639 80.0054 275.372 82.4532 278.236 84.7594C279.017 85.3877 279.799 85.9928 280.58 86.6023C279.915 86.4684 279.247 86.3448 278.579 86.1817C274.767 85.3494 264.557 80.4039 261.813 85.1868C258.354 91.1806 279.523 88.2883 282.163 87.8417C285.377 90.328 288.562 92.7897 291.577 95.6266C290.849 95.4838 290.105 95.3683 289.335 95.2736C287.161 94.982 285.394 94.3379 283.291 93.8501C280.699 93.1822 273.239 92.7439 271.732 95.8101C268.945 101.559 288.77 97.595 292.556 96.5539C294.999 98.9101 297.37 101.313 299.87 103.604C302.094 107.912 304.484 112.077 306.99 116.048C313.688 126.663 322.103 135.935 331.647 143.957C329.017 143.211 326.358 142.56 323.676 141.997C321.923 140.503 320.59 139.495 319.445 137.411C318.477 135.65 317.558 133.869 316.485 132.168C315.354 130.374 313.172 127.335 310.622 128.143C307.418 129.159 309.371 133.023 310.525 134.906C312.189 137.624 314.435 139.649 317.205 140.81C314.856 140.441 312.498 140.129 310.132 139.877C306.915 136.179 304.523 124.68 298.524 129.452C294.233 132.867 298.573 136.927 302.873 139.272C300.528 139.131 298.183 139.044 295.84 139C293.462 137.906 290.838 137.12 288.433 136.139C286.223 135.236 283.773 134.452 281.357 134.592C278.494 134.757 274.445 135.796 275.078 139.446C275.709 143.082 279.811 144.285 282.924 144.091C287.304 143.819 291.485 141.694 295.666 140.483C298.38 140.713 301.083 141 303.775 141.331C301.98 141.869 300.236 142.719 298.794 143.497C296.793 144.574 292.72 147.074 293.744 149.951C294.849 153.052 297.885 152.341 299.972 150.775C301.608 149.549 302.941 147.844 304.216 146.265C305.633 144.515 306.818 143.215 308.524 141.958C311.799 142.418 315.069 142.93 318.341 143.467C313.759 144.851 308.184 148.533 308.398 152.814C308.572 156.296 312.455 155.911 314.6 154.771C316.204 153.919 317.417 152.67 318.273 151.085C318.819 150.072 319.088 148.903 319.412 147.806C319.863 146.283 320.697 145.12 321.719 144.024C325.905 144.729 330.105 145.456 334.338 146.156C336.506 147.89 338.724 149.566 340.994 151.176C347.721 155.951 355.03 160.472 362.619 164.477C359.985 164.21 357.218 164.269 354.439 164.528C354.377 164.501 354.32 164.469 354.25 164.456C349.101 163.427 345.944 160.176 341.688 157.399C338.779 155.502 335.416 154.258 332.415 156.587C329.434 158.901 333.059 162.176 335.068 163.379C337.719 164.964 340.848 165.755 344.03 166.15C342.456 166.461 340.934 166.775 339.507 167.059C338.256 167.309 337.009 167.576 335.762 167.853C335.716 167.855 335.669 167.875 335.621 167.884C335.322 167.95 335.023 168.021 334.725 168.088C333.777 167.402 332.7 166.907 331.763 166.168C330.368 165.069 329.017 163.924 327.572 162.885C325.464 161.368 322.296 159.211 319.609 160.463C316.878 161.735 317.987 165.155 319.807 166.61C322.044 168.4 324.584 169.04 327.234 169.276C327.979 169.431 328.711 169.496 329.331 169.396C326.055 170.229 322.791 171.119 319.537 172.037C319.533 172.035 319.532 172.034 319.529 172.032C318.056 171.443 317.349 169.9 315.948 169.161C314.909 168.613 313.79 168.232 312.662 167.912C311.03 167.449 308.265 166.664 306.976 168.216C305.422 170.082 308.779 172.532 310.141 173.076C311.15 173.48 312.251 173.698 313.382 173.788C312.538 174.029 311.696 174.271 310.851 174.511C306.837 174.084 292.736 171.936 295.698 178.717C298.294 184.662 307.151 178.312 310.359 175.735C310.735 175.656 311.11 175.572 311.486 175.491C311.51 175.488 311.537 175.488 311.56 175.486C311.616 175.481 311.661 175.462 311.703 175.443C313.113 175.137 314.52 174.816 315.924 174.484C314.473 175.76 313.437 177.623 312.682 179.302C311.975 180.877 311.053 184.426 313.271 185.325C315.044 186.045 316.726 182.685 317.333 181.605C317.925 180.55 318.449 179.452 318.914 178.336C319.533 176.851 319.484 175.217 320.123 173.732C320.166 173.633 320.185 173.537 320.186 173.447C323.33 172.663 326.468 171.854 329.614 171.066C328.099 172.121 326.672 173.319 325.31 174.548C323.481 176.197 319.791 179.685 321.151 182.557C322.561 185.533 325.836 184.816 327.662 182.691C329.096 181.021 330.115 179.084 331.104 177.128C332.622 174.118 333.848 172.075 336.473 169.739C336.595 169.63 336.675 169.504 336.733 169.374C339.917 168.67 343.073 168.113 346.223 167.686C342.718 170.444 340.421 174.954 338.779 178.941C338.072 180.66 336.971 187.077 340.938 186.113C344.32 185.294 346.354 180.638 347.795 177.886C349.535 174.569 351.241 170.668 352.248 167.013C357.073 166.611 361.929 166.519 366.895 166.67C373.902 170.134 381.1 173.123 388.271 175.424C388.73 175.57 389.137 174.89 388.676 174.642C386.454 173.45 384.215 172.309 381.969 171.185C381.938 171.112 381.899 171.043 381.836 170.989C377.439 167.086 374.592 162.148 372.28 156.898C373.048 155.908 373.339 154.692 374.024 153.585C374.525 152.776 375.185 152.16 375.861 151.5C377.626 149.778 379.405 148.073 380.936 146.131C382.714 143.877 383.707 139.24 379.384 139.347C377.155 139.402 375.358 141.178 373.975 143.229C373.485 143.893 373.055 144.629 372.686 145.402C372.275 146.176 371.92 146.922 371.624 147.557C371.184 148.508 370.56 150.074 370.167 151.721C369.428 149.794 368.713 147.858 367.985 145.941C367.59 144.907 367.214 143.863 366.846 142.814C368.211 140.373 369.331 138.07 371.474 136.117C373.373 134.387 375.242 132.678 376.843 130.655C378.314 128.799 380.432 123.066 376.505 122.166C373.05 121.374 370.468 125.48 368.918 127.98C367.464 130.328 365.467 133.728 364.979 136.949C364.133 133.994 363.426 130.998 362.895 127.974C364.146 126.855 364.641 125.052 366.006 123.93C367.598 122.622 369.245 121.38 370.793 120.019C372.622 118.414 376.39 115.294 374.867 112.46C373.166 109.277 369.374 112.733 367.975 114.234ZM291.315 21.4432C291.324 21.4547 291.331 21.4678 291.341 21.4788C291.33 21.5036 291.32 21.5283 291.307 21.553C291.311 21.516 291.313 21.4798 291.315 21.4432ZM262.985 39.8195C263.018 39.8361 263.051 39.8517 263.084 39.8674C263.135 39.9073 263.19 39.9437 263.243 39.9819C263.155 39.9311 263.072 39.8738 262.985 39.8195ZM296.196 147.012C296.17 147.006 296.146 147.002 296.12 146.998C296.182 146.94 296.24 146.881 296.307 146.823C296.266 146.883 296.234 146.948 296.196 147.012ZM319.923 161.71C319.911 161.705 319.898 161.698 319.887 161.695C319.904 161.683 319.926 161.673 319.946 161.663C319.938 161.678 319.929 161.693 319.923 161.71Z" fill="#D8E4FF"/>
<path opacity="0.4" d="M100.793 196.422C88.5181 196.323 76.4331 197.488 69.7412 208.814C67.6431 212.501 66.1988 216.356 63.3797 219.346C59.3878 221.6 55.5966 224.07 52.2028 226.882C60.5078 212.1 66.9796 195.939 70.8469 179.313C70.9531 179.259 71.046 179.174 71.1015 179.046C74.6784 170.647 80.5561 165.141 87.4603 159.989C89.1842 159.659 90.9637 159.573 92.8271 159.384C102.658 158.235 113.526 157.575 119.785 148.734C126.445 139.349 125.219 124.692 125.82 113.631C117.442 122.306 104.598 124.875 96.3997 133.684C89.3798 141.16 88.7354 151.599 83.7776 160C79.2406 163.481 74.9412 167.486 72.2927 172.457C73.769 164.582 74.6387 156.632 74.8246 148.702C75.6316 144.592 75.9719 140.406 76.9708 136.433C79.7805 125.043 84.5877 115.128 80.2219 103.2C75.1208 89.6071 62.4087 77.9608 54.1605 65.9666C53.3067 73.1932 53.7626 80.5446 53.9013 87.9432C53.7956 105.543 52.7337 122.155 64.3802 136.381C66.8029 139.254 71.4211 143.427 73.0124 147.466C72.5557 164.059 68.9633 180.345 63.2945 196.059C62.829 192.029 61.4726 187.981 59.5832 184.037C59.6488 183.265 59.7111 182.505 59.7223 181.76C62.2843 160.084 44.6733 151.269 28.8917 139.599C34.3299 150.075 30.5812 162.735 38.8618 172.788C43.8038 178.506 51.462 180.805 57.0809 185.497C59.4962 190.563 61.1307 195.846 61.2842 201.411C55.9835 214.893 49.2244 227.928 41.7045 240.345C41.5518 237.362 41.0435 234.471 40.25 231.655C40.7753 230.426 41.3198 229.17 41.8065 227.998C53.4015 200.936 26.7895 189.113 10.3852 172.212C11.5042 177.529 12.1256 182.76 12.4324 188.038C13.7864 201.383 13.9233 215.236 25.5808 224.136C28.9812 226.651 34.0718 227.982 37.3617 230.735C38.7651 234.419 39.8609 238.259 40.3229 242.415C40.3277 242.461 40.3493 242.494 40.361 242.536C39.1572 244.489 37.9392 246.434 36.7023 248.356C36.307 248.971 37.1691 249.626 37.6206 249.035C41.9269 243.412 45.9731 237.439 49.696 231.199C54.816 227.568 60.0063 224.269 65.4677 221.279C67.2113 221.696 68.8586 222.55 70.6545 223.519C79.4812 227.52 88.6039 235.672 99.1367 231.675C110.118 227.448 118.328 206.861 123.088 196.633C115.684 196.773 108.239 196.597 100.793 196.422Z" fill="#6B818C"/>
<path opacity="0.4" d="M183.243 64.0461C188.095 69.3961 186.943 75.3801 187.889 81.6511C190.328 86.4081 192.705 91.1741 194.982 95.9691C194.745 94.9801 194.519 93.9861 194.376 92.9661C193.963 90.3711 193.699 76.8421 198.436 79.5091C202.132 81.4861 200.289 88.7411 199.178 91.5361C198.271 93.8041 196.447 96.0991 196.242 98.6461C199.082 104.761 201.735 110.935 204.084 117.213C204.046 115.918 203.736 114.66 203.636 113.334C203.37 110.334 203.295 95.8831 207.784 97.1601C212.364 98.3971 210.213 108.134 209.195 110.886C208.095 113.861 206.275 116.261 204.707 118.949C206.4 123.6 207.928 128.31 209.239 133.102C209.593 132.158 209.987 131.241 210.332 130.311C211.392 127.651 216.588 111.331 221.049 116.187C224.183 119.483 219.465 126.666 217.391 129.182C215.308 131.779 212.781 133.938 209.914 135.672C211.178 140.608 212.203 145.636 212.955 150.771C213.316 149.716 213.701 148.649 214.096 147.58C215.373 144.541 220.194 134.187 224.905 136.312C228.7 138.019 223.942 145.725 222.518 147.716C220.267 150.772 217.071 153.397 213.472 154.732C213.629 156.069 213.797 157.403 213.915 158.754C214.205 162.11 214.389 165.491 214.499 168.881C214.599 168.659 214.682 168.432 214.785 168.213C216.048 165.625 221.944 154.222 225.67 157.354C230.97 161.69 218.174 170.661 214.581 172.682C214.654 178.085 214.516 183.513 214.168 188.95C214.854 187.765 215.51 186.578 216.264 185.474C217.829 183.304 224.805 173.521 227.679 177.102C230.098 180.057 225.679 184.987 223.652 186.755C220.852 189.134 217.431 190.68 213.96 191.862C213.632 196.115 213.19 200.366 212.625 204.603C213.404 203.489 214.328 202.48 215.156 201.472C217.397 198.713 219.73 195.912 222.999 194.297C226.175 192.725 230.91 192.72 230.437 197.507C229.764 205.614 218.555 206.297 212.182 207.678C211.319 213.55 210.24 219.386 208.959 225.16C209.816 223.941 210.545 222.651 211.293 221.413C213.747 217.666 220.479 207.716 225.818 213.505C229.625 217.66 223.17 222.525 219.817 223.955C216.247 225.39 212.5 225.715 208.754 226.083C206.898 234.316 204.652 242.419 202.048 250.279C201.908 250.703 201.307 250.458 201.411 250.045C203.482 241.767 205.428 233.469 207.121 225.143C206.839 223.193 204.864 221.896 203.37 220.544C201.167 218.661 187.643 204.044 196.997 204.755C202.983 205.325 206.649 214.987 207.862 221.46C208.77 216.768 209.577 212.064 210.281 207.352C209.277 206.288 208.157 205.388 206.949 204.467C204.672 202.784 190.918 192.509 196.09 189.461C199.692 187.359 205.953 195.399 207.513 197.577C208.702 199.234 210.069 201.242 210.858 203.351C211.383 199.472 211.824 195.585 212.168 191.69C211.548 190.668 210.282 189.831 209.395 189.19C207.477 187.564 192.743 178.91 197.971 175.501C200.979 173.56 207.284 180.242 208.835 182.037C210.333 183.773 211.827 185.846 212.448 188.14C212.802 183.298 213 178.437 213.018 173.56C211.76 172.712 210.571 171.682 209.286 170.91C206.975 169.519 204.398 168.643 202.163 167.054C200.323 165.839 194.764 161.265 196.167 158.501C197.886 155.092 205.306 161.652 206.735 162.944C209.196 165.15 211.655 167.727 213.004 170.796C212.954 166.258 212.763 161.708 212.37 157.136C212.302 156.332 212.188 155.542 212.104 154.743C211.207 154.154 210.254 153.775 209.222 153.332C206.334 152.265 203.774 150.936 201.344 149.044C199.729 147.838 192.171 142.064 193.433 139.478C194.91 136.514 203.705 143.277 205.008 144.294C207.584 146.227 210.173 148.477 211.723 151.304C211.028 146.113 209.998 141.026 208.74 136.011C207.776 135.3 206.65 135.369 205.486 135.159C202.628 134.637 200.033 133.601 197.571 132.004C195.486 130.623 189.065 126.11 190.257 122.888C192.102 117.72 203.972 128.757 208.174 133.742C206.881 128.906 205.347 124.148 203.649 119.441C202.575 119.225 201.549 118.761 200.502 118.508C198.278 117.915 196.023 117.615 193.858 116.661C191.356 115.584 183.949 112.081 183.599 108.899C183.247 105.105 192.835 109.718 194.239 110.468C196.827 111.722 200.23 113.256 202.253 115.641C200.149 110.139 197.829 104.707 195.368 99.3281C194.149 99.1761 192.942 99.1151 191.757 99.0171C189.269 98.9371 186.939 98.8371 184.621 97.6751C182.682 96.7281 177.128 93.3771 177.51 90.6961C178.255 85.5631 191.768 93.9371 194.571 97.6151C192.221 92.5441 189.769 87.5091 187.271 82.4941C185.276 81.1391 183.435 79.4951 181.617 77.9411C177.958 74.8331 174.108 70.5861 174.003 65.5081C173.851 58.8931 180.093 60.5901 183.243 64.0461Z" fill="#171C1F"/>
<path d="M6.71185 279.473L-1 292.307V412.153H392V167.5L338.917 204.854C296.428 234.754 241.428 240.35 193.788 219.621C125.245 189.798 45.2141 215.402 6.71185 279.473Z" fill="#363F43"/>
<path d="M392 232.5L293.28 210.231C218.545 193.372 140.199 205.437 74 244L-1 292.307V412.153H392V232.5Z" fill="#D8E4FF"/>
<path d="M392 224L339.93 268.299C290.688 310.191 220.572 317.001 164.188 285.368L144.975 274.588C97.6567 248.041 38.593 255.21 -1 292.306V412.153H392V224Z" fill="#35605A"/>
</svg>
